<svg width="17" height="17" viewBox="0 0 17 17" fill="none" xmlns="http://www.w3.org/2000/svg">
<path d="M2.33333 8.83335V15.5H8.16666V8.83335H2.33333ZM9 8.83335V15.5H14.8333V8.83335H9ZM15.6667 8.83335V16.3334H1.5V8.83335H0.666664V3.83335H3.19583L3.16666 3.41668C3.16644 2.7789 3.37527 2.15863 3.76117 1.65086C4.14708 1.14308 4.68878 0.775787 5.30333 0.605226C5.91787 0.434666 6.57139 0.47024 7.16379 0.7065C7.75619 0.94276 8.25483 1.36668 8.58333 1.91335C8.91184 1.36668 9.41047 0.94276 10.0029 0.7065C10.5953 0.47024 11.2488 0.434666 11.8633 0.605226C12.4779 0.775787 13.0196 1.14308 13.4055 1.65086C13.7914 2.15863 14.0002 2.7789 14 3.41668L13.9708 3.83335H16.5V8.83335H15.6667ZM1.5 4.66668V8.00002H8.16666V4.66668H1.5ZM15.6667 8.00002V4.66668H9V8.00002H15.6667ZM13.125 3.83335L13.1667 3.41668C13.1667 2.86415 12.9472 2.33424 12.5565 1.94354C12.1658 1.55284 11.6359 1.33335 11.0833 1.33335C10.5308 1.33335 10.0009 1.55284 9.61019 1.94354C9.21949 2.33424 9 2.86415 9 3.41668V3.83335H13.125ZM8.16666 3.83335V3.41668C8.16666 2.86415 7.94717 2.33424 7.55647 1.94354C7.16577 1.55284 6.63587 1.33335 6.08333 1.33335C5.5308 1.33335 5.00089 1.55284 4.61019 1.94354C4.21949 2.33424 4 2.86415 4 3.41668L4.04166 3.83335H8.16666Z" fill="black"/>
</svg>
