<svg width="20" height="20" viewBox="0 0 20 20" fill="none" xmlns="http://www.w3.org/2000/svg">
<path d="M15.5216 4.87344C15.3788 2.50594 13.2713 0.625 10.6853 0.625C9.14781 0.625 7.78 1.29125 6.89125 2.3275C6.46064 2.20946 6.01619 2.14945 5.56969 2.14906C2.98375 2.14906 0.8875 4.09563 0.8875 6.49594C0.8875 7.35813 1.16125 8.15969 1.6275 8.83563C1.00125 9.605 0.625 10.56 0.625 11.5988C0.625 14.1347 2.83906 16.19 5.57 16.19C6.75656 16.19 7.83875 15.795 8.69 15.1475C8.71063 15.2834 8.72969 15.4225 8.75063 15.5575C8.95375 16.8838 9.13156 18.1578 9.04 19.375L11.2275 19.3516C11.1384 17.9925 10.7916 16.7209 10.4409 15.5181C11.033 15.8121 11.6852 15.965 12.3463 15.9647C14.5609 15.9647 16.3588 14.3225 16.4134 12.2784C18.1219 11.8294 19.375 10.3738 19.375 8.64406C19.375 6.62406 17.6681 4.97938 15.5216 4.87344ZM16.175 11.3719L15.495 11.5506L15.4759 12.2534C15.435 13.7831 14.0309 15.0272 12.3459 15.0272C11.4575 15.0272 10.6184 14.6819 10.0216 14.0806C9.78 13.2338 9.5625 12.3944 9.42406 11.545C9.92406 11.5209 10.4109 11.46 10.8994 11.37C11.5797 11.2422 12.2475 11.0506 12.8797 10.7775C13.5109 10.5056 14.1056 10.15 14.6166 9.70469C15.1234 9.26569 15.5427 8.73493 15.8525 8.14031C15.502 8.70265 15.0488 9.19401 14.5166 9.58875C13.9869 9.98375 13.3881 10.2816 12.7634 10.4969C12.1381 10.7128 11.4856 10.8484 10.8278 10.9219C10.3344 10.9774 9.83759 10.9977 9.34125 10.9828C9.2025 9.83375 9.22875 8.66625 9.47813 7.51781C9.75375 6.23469 10.2916 4.99 10.9975 3.83469C10.1419 4.89063 9.42219 6.07469 8.95125 7.37563C8.67781 8.12531 8.49906 8.91125 8.39906 9.70906C8.16915 9.58139 7.94477 9.44397 7.72656 9.29719C7.32478 9.02819 6.94899 8.72228 6.60406 8.38344C5.92031 7.70938 5.37656 6.86281 5.21313 5.89844C5.27063 6.87406 5.73188 7.81031 6.36906 8.58313C6.69108 8.9729 7.04901 9.33156 7.43813 9.65438C7.72563 9.89344 8.01938 10.1153 8.33813 10.3209C8.30966 10.704 8.29882 11.0881 8.30563 11.4722C8.31469 12.1122 8.36781 12.7469 8.44094 13.375C8.2088 13.3593 7.97751 13.3328 7.74781 13.2956C7.26847 13.2194 6.79897 13.0906 6.34781 12.9116C5.44625 12.5553 4.6325 11.9531 4.06969 11.1481C4.54125 12.0044 5.3075 12.7156 6.21281 13.1841C6.66836 13.4209 7.14867 13.6067 7.645 13.7381C7.93063 13.8128 8.21625 13.8734 8.50875 13.9172C8.515 13.9622 8.52219 14.0056 8.52844 14.0506C7.76719 14.8141 6.69531 15.2528 5.57063 15.2528C3.36031 15.2528 1.5625 13.6134 1.5625 11.5988C1.5625 10.8147 1.83625 10.0641 2.35469 9.42781L2.79875 8.8825L2.39938 8.30344C2.02375 7.75875 1.82531 7.13375 1.82531 6.49594C1.82531 4.61594 3.50531 3.08656 5.57 3.08656C5.92938 3.08656 6.29094 3.13563 6.64469 3.23188L7.21719 3.38813L7.60313 2.93781C8.3525 2.06375 9.47594 1.5625 10.6853 1.5625C12.7584 1.5625 14.4716 3.04156 14.5856 4.92969L14.6359 5.76813L15.4753 5.80969C17.1363 5.89188 18.4375 7.13656 18.4375 8.64406C18.4375 9.9 17.5069 11.0216 16.175 11.3719Z" fill="black"/>
</svg>
